#!OML:ASF F:\VICON\USERDATA\INSTALL\rory3\rory3.ASF
:FULLY-SPECIFIED
:DEGREES
232
root 0.363704 17.7267 12.6741 -0.947675 -4.01204 -6.48982
lowerback 9.46381 2.17694 6.94459
upperback -0.44902 3.78931 1.94127
thorax -5.47314 1.69305 -2.38189
lowerneck -16.0424 -3.41344 -1.37231
upperneck 22.7371 -4.51955 0.400745
head 9.91398 -2.1612 -0.225424
rclavicle 6.35583e-014 2.08724e-014
rhumerus -19.4754 -10.5214 -82.267
rradius 31.0469
rwrist 0.484265
rhand -19.5389 24.8021
rfingers 7.12502
rthumb 6.78492 -5.06914
lclavicle 6.35583e-014 2.08724e-014
lhumerus -38.9878 9.32713 80.5514
lradius 17.0626
lwrist -2.01156
lhand -26.946 28.2731
lfingers 7.12502
lthumb -0.367919 58.2525
rfemur 12.5951 7.00963 32.981
rtibia 29.9078
rfoot -14.4149 -1.11942
rtoes -4.35726
lfemur -26.2636 -2.21253 -13.2706
ltibia 23.0858
lfoot -2.26174 0.466657
ltoes -7.40455
233
root 0.379288 17.7317 12.8911 -1.24589 -4.01297 -6.14828
lowerback 9.60225 2.19457 6.54719
upperback -0.425363 3.77508 1.87107
thorax -5.54664 1.69446 -2.23979
lowerneck -16.2409 -3.44509 -1.39017
upperneck 23.1341 -4.58182 0.468187
head 10.0966 -2.17943 -0.215673
rclavicle 6.7711e-015 -1.69961e-014
rhumerus -19.7826 -11.1586 -82.1216
rradius 30.7305
rwrist 0.933019
rhand -19.5896 25.4377
rfingers 7.12502
rthumb 6.73603 -4.43513
lclavicle 6.7711e-015 -1.69961e-014
lhumerus -39.0364 9.36327 80.4565
lradius 16.7628
lwrist -2.24922
lhand -25.7357 29.0631
lfingers 7.12502
lthumb 0.801 59.0413
rfemur 12.4701 6.79195 32.4908
rtibia 31.7024
rfoot -13.067 -0.601049
rtoes -4.33511
lfemur -25.9656 -2.32648 -13.6991
ltibia 24.0396
lfoot -2.31993 -0.306347
ltoes -6.09726
234
root 0.406472 17.7466 13.122 -1.51932 -3.90314 -5.38935
lowerback 9.63628 2.21796 5.93879
upperback -0.466525 3.72746 1.61225
thorax -5.63191 1.68189 -2.16943
lowerneck -15.9888 -3.50388 -1.42311
upperneck 23.1907 -4.69885 0.616343
head 10.0752 -2.22018 -0.169775
rclavicle 2.17079e-014 1.39149e-015
rhumerus -20.2648 -11.8341 -81.9543
rradius 30.2516
rwrist 1.4985
rhand -20.031 25.8928
rfingers 7.12502
rthumb 6.30988 -3.99322
lclavicle 2.17079e-014 1.39149e-015
lhumerus -39.1085 9.50021 80.1654
lradius 16.1894
lwrist -2.6891
lhand -23.1992 33.3266
lfingers 7.12502
lthumb 3.25074 63.2815
rfemur 12.1019 6.43086 31.4151
rtibia 33.7751
rfoot -11.401 0.0241897
rtoes -4.10561
lfemur -25.5525 -2.75159 -14.5962
ltibia 24.842
lfoot -1.94307 -1.65885
ltoes -3.84583
235
root 0.435145 17.7425 13.3361 -1.709 -3.51418 -4.74696
lowerback 9.67982 2.13615 5.45844
upperback -0.42159 3.55376 1.42099
thorax -5.63728 1.60868 -2.08024
lowerneck -16.0106 -3.58662 -1.52937
upperneck 23.1514 -4.8171 0.739361
head 10.0731 -2.26963 -0.125041
rclavicle 3.74709e-014 -1.10325e-014
rhumerus -20.6498 -12.1878 -81.8288
rradius 30.2382
rwrist 1.47361
rhand -20.7672 25.3435
rfingers 7.12502
rthumb 5.5991 -4.56249
lclavicle 3.74709e-014 -1.10325e-014
lhumerus -38.8907 9.97967 79.8104
lradius 15.6885
lwrist -3.622
lhand -21.9835 38.8617
lfingers 7.12502
lthumb 4.42468 68.7955
rfemur 11.4987 5.67015 30.3579
rtibia 35.9912
rfoot -9.23281 0.779987
rtoes -4.28553
lfemur -25.2198 -3.03068 -15.5055
ltibia 25.5919
lfoot -1.33834 -3.41856
ltoes -0.871331
236
root 0.452311 17.7409 13.5382 -1.89727 -3.2252 -4.19223
lowerback 9.66088 2.11796 4.90232
upperback -0.246451 3.4494 1.29093
thorax -5.47194 1.57922 -1.88703
lowerneck -16.228 -3.6275 -1.45984
upperneck 22.9826 -4.87304 0.687803
head 10.051 -2.29497 -0.164584
rclavicle -1.97542e-015 -3.27995e-015
rhumerus -20.8754 -12.7173 -81.7011
rradius 30.388
rwrist 1.51928
rhand -21.1506 24.7364
rfingers 7.12502
rthumb 5.22893 -5.17907
lclavicle -1.97542e-015 -3.27995e-015
lhumerus -38.5208 10.6212 79.4716
lradius 15.5469
lwrist -4.50299
lhand -26.5867 25.396
lfingers 7.12502
lthumb -0.0208838 55.3757
rfemur 10.6938 5.11384 29.4619
rtibia 38.3101
rfoot -6.63033 1.34419
rtoes -3.17223
lfemur -24.8386 -2.85034 -16.4016
ltibia 26.2992
lfoot -0.999791 -4.32079
ltoes 0.73961
237
root 0.469618 17.7384 13.7431 -2.01329 -3.05575 -4.19057
lowerback 9.61175 2.10285 4.93308
upperback -0.215146 3.42807 1.28718
thorax -5.41063 1.57005 -1.90206
lowerneck -16.1922 -3.62713 -1.49076
upperneck 22.9142 -4.89042 0.795171
head 10.0238 -2.29375 -0.122795
rclavicle -4.98794e-014 -3.03147e-014
rhumerus -21.3461 -13.5241 -81.4712
rradius 30.2658
rwrist 1.77869
rhand -21.1346 24.7505
rfingers 7.12502
rthumb 5.2444 -5.16465
lclavicle -4.98794e-014 -3.03147e-014
lhumerus -38.3227 10.9686 79.2235
lradius 15.4461
lwrist -5.14148
lhand -27.3369 22.1421
lfingers 7.12502
lthumb -0.745482 52.1205
rfemur 9.72221 4.74381 29.2109
rtibia 40.6297
rfoot -3.68469 1.64609
rtoes -1.77215
lfemur -24.5943 -2.55268 -16.7056
ltibia 27.1285
lfoot -1.11959 -3.89832
ltoes -3.43314
238
root 0.491241 17.7377 13.9609 -2.28354 -2.94884 -4.08072
lowerback 9.55052 2.07767 4.89761
upperback -0.124871 3.38007 1.23915
thorax -5.28307 1.55172 -1.9208
lowerneck -16.2511 -3.66569 -1.45396
upperneck 23.1548 -4.96205 0.803426
head 10.1214 -2.32002 -0.139541
rclavicle -2.22639e-014 1.98785e-015
rhumerus -21.7572 -14.1514 -81.3571
rradius 30.0925
rwrist 1.73491
rhand -20.8683 24.1564
rfingers 7.12502
rthumb 5.50148 -5.75218
lclavicle -2.22639e-014 1.98785e-015
lhumerus -38.0372 11.2268 78.9035
lradius 15.5648
lwrist -6.31967
lhand -23.8561 27.4192
lfingers 7.12502
lthumb 2.61638 57.3829
rfemur 8.93041 4.36467 28.8035
rtibia 42.9568
rfoot -0.70015 2.167
rtoes -1.30425
lfemur -24.1296 -2.25172 -17.1687
ltibia 27.9359
lfoot -1.21188 -3.40261
ltoes -9.43831
